<svg width="874" height="402" viewBox="0 0 874 402" fill="none" xmlns="http://www.w3.org/2000/svg">
<g clip-path="url(#clip0_282_1824)">
<rect width="402" height="874" transform="matrix(0 -1 1 0 0 402.002)" fill="white"/>
<g filter="url(#filter0_f_282_1824)">
<path d="M163 -4.49813C163 -93.4783 194.554 -178.814 250.721 -241.732C306.889 -304.651 383.068 -339.998 462.5 -339.998C541.932 -339.998 618.111 -304.651 674.279 -241.732C730.446 -178.814 762 -93.4782 762 -4.49811L462.5 -4.4981L163 -4.49813Z" fill="url(#paint0_linear_282_1824)"/>
</g>
<g filter="url(#filter1_f_282_1824)">
<path d="M54.9999 705.502C54.9999 642.248 102.516 581.584 187.095 536.857C271.674 492.13 386.387 467.002 506 467.002C625.613 467.002 740.326 492.13 824.905 536.857C909.484 581.585 957 642.248 957 705.502L506 705.502L54.9999 705.502Z" fill="url(#paint1_linear_282_1824)"/>
</g>
<path d="M208.124 352.002L220.412 318.402L226.268 318.402L238.556 352.002L232.988 352.002L222.188 321.426L224.444 321.426L213.644 352.002L208.124 352.002ZM213.788 343.89L215.276 339.666L231.404 339.666L232.892 343.89L213.788 343.89ZM241.956 352.002L241.956 317.442L247.236 317.442L247.236 352.002L241.956 352.002ZM252.128 352.002L252.128 317.442L257.408 317.442L257.408 352.002L252.128 352.002ZM287.578 352.578C285.306 352.578 283.274 352.034 281.482 350.946C279.722 349.858 278.33 348.37 277.306 346.482C276.314 344.562 275.818 342.418 275.818 340.05C275.818 337.65 276.314 335.522 277.306 333.666C278.33 331.778 279.722 330.306 281.482 329.25C283.274 328.162 285.322 327.618 287.626 327.618C289.482 327.618 291.114 327.986 292.522 328.722C293.93 329.458 295.034 330.466 295.834 331.746L295.834 317.442L301.114 317.442L301.114 352.002L295.834 352.002L295.834 348.354C295.098 349.442 294.058 350.418 292.714 351.282C291.37 352.146 289.658 352.578 287.578 352.578ZM288.538 347.97C289.978 347.97 291.242 347.634 292.33 346.962C293.45 346.29 294.314 345.362 294.922 344.178C295.562 342.994 295.882 341.634 295.882 340.098C295.882 338.53 295.562 337.154 294.922 335.97C294.314 334.786 293.45 333.874 292.33 333.234C291.242 332.562 289.978 332.226 288.538 332.226C287.13 332.226 285.866 332.562 284.746 333.234C283.658 333.874 282.794 334.786 282.154 335.97C281.514 337.154 281.194 338.514 281.194 340.05C281.194 341.618 281.514 342.994 282.154 344.178C282.794 345.362 283.658 346.29 284.746 346.962C285.866 347.634 287.13 347.97 288.538 347.97ZM317.269 352.578C314.901 352.578 312.773 352.066 310.885 351.042C308.997 349.986 307.493 348.514 306.373 346.626C305.285 344.738 304.741 342.562 304.741 340.098C304.741 337.602 305.285 335.426 306.373 333.57C307.493 331.682 308.997 330.226 310.885 329.202C312.805 328.146 314.933 327.618 317.269 327.618C319.669 327.618 321.797 328.146 323.653 329.202C325.541 330.226 327.029 331.682 328.117 333.57C329.237 335.426 329.797 337.602 329.797 340.098C329.797 342.562 329.237 344.738 328.117 346.626C327.029 348.514 325.541 349.986 323.653 351.042C321.765 352.066 319.637 352.578 317.269 352.578ZM317.221 348.018C318.533 348.018 319.717 347.73 320.773 347.154C321.861 346.546 322.725 345.666 323.365 344.514C324.005 343.33 324.325 341.858 324.325 340.098C324.325 338.338 324.005 336.882 323.365 335.73C322.725 334.546 321.861 333.666 320.773 333.09C319.717 332.482 318.565 332.178 317.317 332.178C316.037 332.178 314.853 332.482 313.765 333.09C312.677 333.666 311.813 334.546 311.173 335.73C310.533 336.882 310.213 338.338 310.213 340.098C310.213 341.858 310.533 343.33 311.173 344.514C311.813 345.666 312.661 346.546 313.717 347.154C314.805 347.73 315.973 348.018 317.221 348.018ZM333.502 352.002L333.502 328.194L338.782 328.194L338.782 331.986C339.582 330.642 340.67 329.586 342.046 328.818C343.422 328.018 344.99 327.618 346.75 327.618C349.662 327.618 351.934 328.53 353.566 330.354C355.198 332.146 356.014 334.818 356.014 338.37L356.014 352.002L350.734 352.002L350.734 338.898C350.734 336.658 350.27 334.978 349.342 333.858C348.446 332.706 347.07 332.13 345.214 332.13C343.358 332.13 341.822 332.786 340.606 334.098C339.39 335.41 338.782 337.282 338.782 339.714L338.782 352.002L333.502 352.002ZM371.822 352.578C369.454 352.578 367.358 352.066 365.534 351.042C363.742 349.986 362.318 348.53 361.262 346.674C360.238 344.818 359.726 342.658 359.726 340.194C359.726 337.73 360.238 335.554 361.262 333.666C362.286 331.746 363.71 330.258 365.534 329.202C367.358 328.146 369.47 327.618 371.87 327.618C374.206 327.618 376.238 328.13 377.966 329.154C379.726 330.178 381.086 331.554 382.046 333.282C383.006 335.01 383.486 336.946 383.486 339.09C383.486 339.41 383.486 339.762 383.486 340.146C383.486 340.498 383.454 340.898 383.39 341.346L363.614 341.346L363.614 337.794L378.206 337.794C378.11 336.002 377.454 334.578 376.238 333.522C375.054 332.466 373.598 331.938 371.87 331.938C370.622 331.938 369.47 332.226 368.414 332.802C367.358 333.346 366.51 334.162 365.87 335.25C365.23 336.306 364.91 337.666 364.91 339.33L364.91 340.674C364.91 342.274 365.23 343.65 365.87 344.802C366.51 345.922 367.342 346.77 368.366 347.346C369.422 347.922 370.574 348.21 371.822 348.21C373.23 348.21 374.414 347.89 375.374 347.25C376.334 346.61 377.038 345.746 377.486 344.658L382.814 344.658C382.398 346.162 381.678 347.522 380.654 348.738C379.662 349.922 378.414 350.866 376.91 351.57C375.438 352.242 373.742 352.578 371.822 352.578ZM388.672 342.402L388.096 318.402L393.808 318.402L393.184 342.402L388.672 342.402ZM387.52 352.002L387.52 345.474L394.336 345.474L394.336 352.002L387.52 352.002ZM427.168 352.578C425.536 352.578 423.952 352.37 422.416 351.954C420.88 351.506 419.488 350.818 418.24 349.89C416.992 348.962 415.968 347.778 415.168 346.338C414.368 344.898 413.888 343.186 413.728 341.202L418.72 341.202C418.944 342.866 419.472 344.21 420.304 345.234C421.136 346.226 422.16 346.946 423.376 347.394C424.592 347.81 425.872 348.018 427.216 348.018C428.56 348.018 429.776 347.826 430.864 347.442C431.952 347.026 432.816 346.418 433.456 345.618C434.096 344.786 434.416 343.762 434.416 342.546C434.416 341.426 434.096 340.434 433.456 339.57C432.848 338.706 431.616 338.114 429.76 337.794L423.52 336.642C420.96 336.162 418.912 335.106 417.376 333.474C415.84 331.842 415.072 329.906 415.072 327.666C415.072 325.586 415.6 323.826 416.656 322.386C417.744 320.914 419.168 319.794 420.928 319.026C422.72 318.226 424.672 317.826 426.784 317.826C428.992 317.826 430.96 318.21 432.688 318.978C434.448 319.746 435.872 320.898 436.96 322.434C438.08 323.938 438.752 325.874 438.976 328.242L433.888 328.242C433.696 326.802 433.264 325.65 432.592 324.786C431.92 323.922 431.088 323.298 430.096 322.914C429.104 322.53 428.016 322.338 426.832 322.338C425.744 322.338 424.672 322.514 423.616 322.866C422.56 323.218 421.696 323.778 421.024 324.546C420.384 325.282 420.064 326.258 420.064 327.474C420.064 328.594 420.48 329.57 421.312 330.402C422.144 331.202 423.36 331.746 424.96 332.034L430.768 333.138C433.552 333.65 435.696 334.658 437.2 336.162C438.736 337.666 439.504 339.746 439.504 342.402C439.504 344.098 439.152 345.586 438.448 346.866C437.744 348.114 436.8 349.17 435.616 350.034C434.432 350.866 433.104 351.506 431.632 351.954C430.192 352.37 428.704 352.578 427.168 352.578ZM450.967 352.578C449.111 352.578 447.527 352.258 446.215 351.618C444.935 350.946 443.959 350.066 443.287 348.978C442.647 347.89 442.327 346.706 442.327 345.426C442.327 342.898 443.239 340.946 445.063 339.57C446.887 338.194 449.287 337.506 452.263 337.506C453.607 337.506 454.807 337.618 455.863 337.842C456.919 338.034 457.783 338.242 458.455 338.466L458.455 337.362C458.455 335.506 457.943 334.13 456.919 333.234C455.927 332.338 454.599 331.89 452.935 331.89C451.687 331.89 450.583 332.146 449.623 332.658C448.663 333.17 448.055 334.066 447.799 335.346L442.711 335.346C442.903 333.618 443.479 332.194 444.439 331.074C445.431 329.922 446.663 329.058 448.135 328.482C449.607 327.906 451.207 327.618 452.935 327.618C456.391 327.618 459.047 328.482 460.903 330.21C462.791 331.938 463.735 334.322 463.735 337.362L463.735 343.602C463.735 344.818 463.799 345.698 463.927 346.242C464.087 346.786 464.327 347.138 464.647 347.298C464.999 347.426 465.463 347.49 466.039 347.49L466.279 347.49L466.279 352.002L465.127 352.002C463.527 352.002 462.183 351.762 461.095 351.282C460.039 350.802 459.303 349.842 458.887 348.402C458.119 349.586 457.079 350.578 455.767 351.378C454.455 352.178 452.855 352.578 450.967 352.578ZM452.023 348.45C453.239 348.45 454.279 348.162 455.143 347.586C456.007 346.978 456.695 346.194 457.207 345.234C457.751 344.242 458.087 343.186 458.215 342.066C457.511 341.874 456.679 341.682 455.719 341.49C454.759 341.298 453.783 341.202 452.791 341.202C451.095 341.202 449.815 341.554 448.951 342.258C448.087 342.962 447.655 343.89 447.655 345.042C447.655 346.034 448.039 346.85 448.807 347.49C449.575 348.13 450.647 348.45 452.023 348.45ZM471.448 352.002L471.448 324.594C471.448 322.61 471.688 321.106 472.168 320.082C472.648 319.026 473.432 318.322 474.52 317.97C475.608 317.618 477.048 317.442 478.84 317.442L481.576 317.442L481.576 321.954L479.8 321.954C478.552 321.954 477.72 322.146 477.304 322.53C476.92 322.882 476.728 323.682 476.728 324.93L476.728 352.002L471.448 352.002ZM468.04 332.658L468.04 328.194L481.576 328.194L481.576 332.658L468.04 332.658ZM495.665 352.578C493.297 352.578 491.201 352.066 489.377 351.042C487.585 349.986 486.161 348.53 485.105 346.674C484.081 344.818 483.569 342.658 483.569 340.194C483.569 337.73 484.081 335.554 485.105 333.666C486.129 331.746 487.553 330.258 489.377 329.202C491.201 328.146 493.313 327.618 495.713 327.618C498.049 327.618 500.081 328.13 501.809 329.154C503.569 330.178 504.929 331.554 505.889 333.282C506.849 335.01 507.329 336.946 507.329 339.09C507.329 339.41 507.329 339.762 507.329 340.146C507.329 340.498 507.297 340.898 507.233 341.346L487.457 341.346L487.457 337.794L502.049 337.794C501.953 336.002 501.297 334.578 500.081 333.522C498.897 332.466 497.441 331.938 495.713 331.938C494.465 331.938 493.313 332.226 492.257 332.802C491.201 333.346 490.353 334.162 489.713 335.25C489.073 336.306 488.753 337.666 488.753 339.33L488.753 340.674C488.753 342.274 489.073 343.65 489.713 344.802C490.353 345.922 491.185 346.77 492.209 347.346C493.265 347.922 494.417 348.21 495.665 348.21C497.073 348.21 498.257 347.89 499.217 347.25C500.177 346.61 500.881 345.746 501.329 344.658L506.657 344.658C506.241 346.162 505.521 347.522 504.497 348.738C503.505 349.922 502.257 350.866 500.753 351.57C499.281 352.242 497.585 352.578 495.665 352.578ZM534.991 352.002C533.519 352.002 532.271 351.826 531.247 351.474C530.223 351.122 529.455 350.45 528.943 349.458C528.431 348.466 528.175 347.026 528.175 345.138L528.175 332.658L524.095 332.658L524.095 328.194L528.175 328.194L528.175 322.098L533.455 322.098L533.455 328.194L539.839 328.194L539.839 332.658L533.455 332.658L533.455 344.418C533.455 345.346 533.535 346.034 533.695 346.482C533.887 346.898 534.207 347.17 534.655 347.298C535.135 347.426 535.823 347.49 536.719 347.49L539.599 347.49L539.599 352.002L534.991 352.002ZM543.173 352.002L543.173 328.194L548.453 328.194L548.453 331.89C549.029 330.674 549.797 329.73 550.757 329.058C551.717 328.354 552.837 328.002 554.117 328.002L557.429 328.002L557.429 332.754L553.589 332.754C552.501 332.754 551.573 333.058 550.805 333.666C550.037 334.242 549.445 335.154 549.029 336.402C548.645 337.65 548.453 339.234 548.453 341.154L548.453 352.002L543.173 352.002ZM568.249 352.578C566.393 352.578 564.809 352.258 563.497 351.618C562.217 350.946 561.241 350.066 560.569 348.978C559.929 347.89 559.609 346.706 559.609 345.426C559.609 342.898 560.521 340.946 562.345 339.57C564.169 338.194 566.569 337.506 569.545 337.506C570.889 337.506 572.089 337.618 573.145 337.842C574.201 338.034 575.065 338.242 575.737 338.466L575.737 337.362C575.737 335.506 575.225 334.13 574.201 333.234C573.209 332.338 571.881 331.89 570.217 331.89C568.969 331.89 567.865 332.146 566.905 332.658C565.945 333.17 565.337 334.066 565.081 335.346L559.993 335.346C560.185 333.618 560.761 332.194 561.721 331.074C562.713 329.922 563.945 329.058 565.417 328.482C566.889 327.906 568.489 327.618 570.217 327.618C573.673 327.618 576.329 328.482 578.185 330.21C580.073 331.938 581.017 334.322 581.017 337.362L581.017 343.602C581.017 344.818 581.081 345.698 581.209 346.242C581.369 346.786 581.609 347.138 581.929 347.298C582.281 347.426 582.745 347.49 583.321 347.49L583.561 347.49L583.561 352.002L582.409 352.002C580.809 352.002 579.465 351.762 578.377 351.282C577.321 350.802 576.585 349.842 576.169 348.402C575.401 349.586 574.361 350.578 573.049 351.378C571.737 352.178 570.137 352.578 568.249 352.578ZM569.305 348.45C570.521 348.45 571.561 348.162 572.425 347.586C573.289 346.978 573.977 346.194 574.489 345.234C575.033 344.242 575.369 343.186 575.497 342.066C574.793 341.874 573.961 341.682 573.001 341.49C572.041 341.298 571.065 341.202 570.073 341.202C568.377 341.202 567.097 341.554 566.233 342.258C565.369 342.962 564.937 343.89 564.937 345.042C564.937 346.034 565.321 346.85 566.089 347.49C566.857 348.13 567.929 348.45 569.305 348.45ZM590.605 352.002L581.725 328.194L587.245 328.194L593.773 346.962L600.253 328.194L605.773 328.194L596.893 352.002L590.605 352.002ZM618.572 352.578C616.204 352.578 614.108 352.066 612.284 351.042C610.492 349.986 609.068 348.53 608.012 346.674C606.988 344.818 606.476 342.658 606.476 340.194C606.476 337.73 606.988 335.554 608.012 333.666C609.036 331.746 610.46 330.258 612.284 329.202C614.108 328.146 616.22 327.618 618.62 327.618C620.956 327.618 622.988 328.13 624.716 329.154C626.476 330.178 627.836 331.554 628.796 333.282C629.756 335.01 630.236 336.946 630.236 339.09C630.236 339.41 630.236 339.762 630.236 340.146C630.236 340.498 630.204 340.898 630.14 341.346L610.364 341.346L610.364 337.794L624.956 337.794C624.86 336.002 624.204 334.578 622.988 333.522C621.804 332.466 620.348 331.938 618.62 331.938C617.372 331.938 616.22 332.226 615.164 332.802C614.108 333.346 613.26 334.162 612.62 335.25C611.98 336.306 611.66 337.666 611.66 339.33L611.66 340.674C611.66 342.274 611.98 343.65 612.62 344.802C613.26 345.922 614.092 346.77 615.116 347.346C616.172 347.922 617.324 348.21 618.572 348.21C619.98 348.21 621.164 347.89 622.124 347.25C623.084 346.61 623.788 345.746 624.236 344.658L629.564 344.658C629.148 346.162 628.428 347.522 627.404 348.738C626.412 349.922 625.164 350.866 623.66 351.57C622.188 352.242 620.492 352.578 618.572 352.578ZM634.346 352.002L634.346 317.442L639.626 317.442L639.626 352.002L634.346 352.002ZM654.118 352.578C651.11 352.578 648.598 351.874 646.582 350.466C644.598 349.058 643.462 347.074 643.174 344.514L648.598 344.514C648.822 345.698 649.446 346.642 650.47 347.346C651.494 348.05 652.774 348.402 654.31 348.402C655.814 348.402 656.966 348.098 657.766 347.49C658.598 346.882 659.014 346.13 659.014 345.234C659.014 344.498 658.742 343.938 658.198 343.554C657.686 343.17 656.726 342.866 655.318 342.642C654.774 342.546 654.134 342.45 653.398 342.354C652.662 342.226 652.022 342.098 651.478 341.97C650.262 341.746 649.11 341.362 648.022 340.818C646.966 340.274 646.102 339.538 645.43 338.61C644.758 337.65 644.422 336.45 644.422 335.01C644.422 332.93 645.206 331.186 646.774 329.778C648.342 328.338 650.566 327.618 653.446 327.618C656.294 327.618 658.582 328.258 660.31 329.538C662.07 330.786 663.078 332.658 663.334 335.154L658.15 335.154C658.054 334.002 657.558 333.154 656.662 332.61C655.766 332.066 654.694 331.794 653.446 331.794C652.134 331.794 651.094 332.066 650.326 332.61C649.558 333.154 649.174 333.826 649.174 334.626C649.174 336.098 650.342 337.042 652.678 337.458C653.03 337.522 653.43 337.602 653.878 337.698C654.358 337.762 654.838 337.842 655.318 337.938C655.83 338.002 656.262 338.066 656.614 338.13C657.446 338.226 658.294 338.418 659.158 338.706C660.022 338.962 660.822 339.33 661.558 339.81C662.294 340.29 662.886 340.93 663.334 341.73C663.782 342.53 664.006 343.538 664.006 344.754C664.006 346.29 663.606 347.65 662.806 348.834C662.038 349.986 660.918 350.898 659.446 351.57C657.974 352.242 656.198 352.578 654.118 352.578Z" fill="#8A4A89"/>
<g opacity="0.74">
<mask id="path-4-inside-1_282_1824" fill="white">
<path d="M581 190.502C581 270.307 516.305 335.002 436.5 335.002C356.695 335.002 292 270.307 292 190.502C292 110.697 356.695 46.002 436.5 46.002C516.305 46.002 581 110.697 581 190.502ZM349.316 190.502C349.316 238.652 388.35 277.686 436.5 277.686C484.651 277.686 523.684 238.652 523.684 190.502C523.684 142.351 484.651 103.318 436.5 103.318C388.35 103.318 349.316 142.351 349.316 190.502Z"/>
</mask>
<path d="M581 190.502C581 270.307 516.305 335.002 436.5 335.002C356.695 335.002 292 270.307 292 190.502C292 110.697 356.695 46.002 436.5 46.002C516.305 46.002 581 110.697 581 190.502ZM349.316 190.502C349.316 238.652 388.35 277.686 436.5 277.686C484.651 277.686 523.684 238.652 523.684 190.502C523.684 142.351 484.651 103.318 436.5 103.318C388.35 103.318 349.316 142.351 349.316 190.502Z" stroke="url(#paint2_radial_282_1824)" stroke-width="161.356" style="mix-blend-mode:hard-light" mask="url(#path-4-inside-1_282_1824)"/>
</g>
<g opacity="0.74">
<mask id="path-5-inside-2_282_1824" fill="white">
<path d="M581 190.502C581 270.307 516.305 335.002 436.5 335.002C356.695 335.002 292 270.307 292 190.502C292 110.697 356.695 46.002 436.5 46.002C516.305 46.002 581 110.697 581 190.502ZM349.316 190.502C349.316 238.652 388.35 277.686 436.5 277.686C484.651 277.686 523.684 238.652 523.684 190.502C523.684 142.351 484.651 103.318 436.5 103.318C388.35 103.318 349.316 142.351 349.316 190.502Z"/>
</mask>
<path d="M581 190.502C581 270.307 516.305 335.002 436.5 335.002C356.695 335.002 292 270.307 292 190.502C292 110.697 356.695 46.002 436.5 46.002C516.305 46.002 581 110.697 581 190.502ZM349.316 190.502C349.316 238.652 388.35 277.686 436.5 277.686C484.651 277.686 523.684 238.652 523.684 190.502C523.684 142.351 484.651 103.318 436.5 103.318C388.35 103.318 349.316 142.351 349.316 190.502Z" stroke="url(#paint3_radial_282_1824)" stroke-width="161.356" style="mix-blend-mode:hard-light" mask="url(#path-5-inside-2_282_1824)"/>
</g>
<path d="M437.044 284.002C428.835 284.002 420.892 282.908 413.215 280.719C405.597 278.59 398.421 275.514 391.689 271.492C384.957 267.529 378.844 262.797 373.352 257.296C367.86 251.795 363.106 245.673 359.09 238.929C355.133 232.186 352.062 225 349.877 217.369C347.751 209.68 346.688 201.724 346.688 193.502C346.688 187.528 347.308 181.554 348.548 175.579C349.848 169.546 351.944 163.128 354.838 156.326L344.119 150.914C343.115 150.381 342.466 149.612 342.17 148.607C341.875 147.601 341.964 146.625 342.436 145.679C342.909 144.733 343.735 144.111 344.916 143.816L364.139 139.291C367.21 135.209 370.547 131.453 374.149 128.023L377.161 108.858C377.397 107.793 377.899 106.995 378.667 106.462C379.494 105.93 380.38 105.723 381.325 105.841C382.329 105.959 383.155 106.492 383.805 107.438L389.917 117.021C396.945 112.466 404.416 109.006 412.329 106.64C420.243 104.215 428.481 103.002 437.044 103.002C445.607 103.002 453.846 104.215 461.759 106.64C469.673 109.006 477.114 112.466 484.083 117.021L490.284 107.438C490.933 106.492 491.73 105.959 492.675 105.841C493.62 105.723 494.506 105.93 495.333 106.462C496.16 106.995 496.662 107.793 496.839 108.858L499.851 128.023C501.74 129.738 503.512 131.542 505.166 133.435C506.878 135.328 508.473 137.28 509.949 139.291L529.172 143.816C530.353 144.111 531.151 144.733 531.564 145.679C532.036 146.625 532.125 147.601 531.83 148.607C531.593 149.612 530.973 150.381 529.969 150.914L519.251 156.326C522.203 163.128 524.3 169.546 525.54 175.579C526.78 181.554 527.4 187.528 527.4 193.502C527.4 201.724 526.308 209.68 524.123 217.369C521.997 225 518.926 232.186 514.91 238.929C510.953 245.673 506.229 251.795 500.737 257.296C495.244 262.797 489.132 267.529 482.4 271.492C475.667 275.514 468.462 278.59 460.785 280.719C453.167 282.908 445.253 284.002 437.044 284.002ZM498.345 184.629C498.64 184.984 498.935 185.103 499.231 184.984C499.585 184.807 499.733 184.482 499.674 184.008L498.788 166.263C498.67 164.193 499.112 162.3 500.116 160.585C501.12 158.869 502.567 157.539 504.457 156.592L518.985 149.139C519.339 148.962 519.487 148.725 519.428 148.429C519.428 148.134 519.251 147.956 518.896 147.897L502.154 144.082C497.902 143.076 495.451 140.385 494.801 136.008L491.878 118.795C491.819 118.381 491.612 118.115 491.258 117.997C490.963 117.878 490.697 118.026 490.461 118.44L481.159 133.08C480.096 134.854 478.649 136.126 476.819 136.895C474.988 137.664 473.039 137.871 470.972 137.516L454.318 134.322C453.905 134.263 453.61 134.352 453.432 134.588C453.255 134.766 453.314 135.061 453.61 135.475L463.974 148.075C465.273 149.553 466.041 151.269 466.277 153.221C466.513 155.113 466.218 156.977 465.391 158.81L457.596 174.958C457.36 175.313 457.33 175.609 457.507 175.846C457.744 176.082 458.068 176.112 458.482 175.934L474.604 169.191C476.848 168.245 478.886 167.979 480.716 168.393C482.547 168.748 484.289 169.812 485.943 171.587L498.345 184.629ZM375.744 184.629L388.057 171.587C389.711 169.871 391.423 168.807 393.195 168.393C395.026 167.919 397.122 168.186 399.484 169.191L415.518 175.934C415.991 176.112 416.316 176.082 416.493 175.846C416.729 175.609 416.729 175.313 416.493 174.958L408.697 158.81C407.811 156.977 407.487 155.113 407.723 153.221C408.018 151.269 408.786 149.553 410.026 148.075L420.39 135.475C420.745 135.061 420.833 134.766 420.656 134.588C420.479 134.352 420.184 134.263 419.77 134.322L403.028 137.516C401.02 137.871 399.101 137.664 397.27 136.895C395.439 136.126 393.963 134.854 392.841 133.08L383.628 118.44C383.392 118.026 383.096 117.878 382.742 117.997C382.447 118.115 382.27 118.381 382.211 118.795L379.287 136.008C378.992 138.078 378.195 139.823 376.895 141.243C375.655 142.662 373.972 143.609 371.846 144.082L355.192 147.897C354.838 147.956 354.631 148.134 354.572 148.429C354.572 148.725 354.72 148.962 355.015 149.139L369.632 156.592C371.521 157.539 372.968 158.869 373.972 160.585C374.976 162.3 375.419 164.193 375.301 166.263L374.327 184.008C374.267 184.482 374.386 184.807 374.681 184.984C375.035 185.103 375.39 184.984 375.744 184.629ZM379.199 196.785C378.313 196.785 377.516 196.785 376.807 196.785C376.157 196.785 375.419 196.755 374.592 196.696C373.825 196.578 372.732 196.459 371.315 196.341C369.897 196.223 368.893 195.779 368.303 195.01C367.712 194.241 367.446 193.029 367.506 191.373L368.746 165.908C368.805 165.376 368.746 164.903 368.569 164.489C368.45 164.075 368.244 163.69 367.948 163.335C365.704 169.25 364.11 174.574 363.165 179.306C362.279 184.038 361.836 188.77 361.836 193.502C361.836 201.901 363.076 209.887 365.557 217.458C368.096 224.97 371.639 231.861 376.187 238.131C380.793 244.401 386.226 249.843 392.486 254.456C398.746 259.07 405.626 262.619 413.126 265.103C420.686 267.647 428.658 268.919 437.044 268.919C445.43 268.919 453.373 267.647 460.874 265.103C468.433 262.619 475.342 259.07 481.602 254.456C487.862 249.843 493.266 244.401 497.813 238.131C502.42 231.861 505.963 224.97 508.443 217.458C510.983 209.887 512.252 201.901 512.253 193.502C512.253 188.77 511.78 184.038 510.835 179.306C509.949 174.574 508.384 169.25 506.14 163.335C505.55 164.163 505.284 165.021 505.343 165.908L506.583 191.373C506.642 193.029 506.347 194.241 505.697 195.01C505.048 195.779 504.073 196.223 502.774 196.341C501.416 196.459 500.323 196.578 499.496 196.696C498.67 196.755 497.931 196.785 497.282 196.785C496.632 196.785 495.835 196.785 494.89 196.785C494.122 196.785 493.443 196.667 492.853 196.43C492.321 196.193 491.76 195.779 491.169 195.188L479.211 182.056C478.856 181.642 478.502 181.347 478.147 181.169C477.793 180.992 477.232 181.051 476.464 181.347L460.785 188.001C459.368 188.592 458.098 188.859 456.976 188.8C455.913 188.74 454.968 188.504 454.141 188.09C453.137 187.617 452.222 187.084 451.395 186.493C450.568 185.901 449.919 185.398 449.446 184.984C447.438 183.446 447.084 181.435 448.383 178.951L459.456 156.06C459.811 155.35 459.929 154.67 459.811 154.019C459.751 153.309 459.515 152.659 459.102 152.067L443.245 132.548C442.832 132.133 442.566 131.69 442.448 131.217C442.389 130.684 442.359 130.3 442.359 130.063C442.359 128.999 442.743 128.052 443.511 127.224C444.279 126.337 445.312 126.011 446.611 126.248L472.035 131.128C472.744 131.187 473.453 131.098 474.161 130.862C474.929 130.625 475.519 130.211 475.933 129.62L476.021 129.531C464.387 121.9 451.395 118.085 437.044 118.085C422.694 118.085 409.701 121.9 398.067 129.531L398.067 129.62C398.54 130.211 399.13 130.625 399.839 130.862C400.607 131.098 401.315 131.187 401.965 131.128L427.389 126.248C428.747 126.011 429.81 126.337 430.578 127.224C431.345 128.052 431.729 128.999 431.729 130.063C431.729 130.3 431.67 130.684 431.552 131.217C431.434 131.69 431.198 132.133 430.843 132.548L414.987 152.067C414.101 153.428 413.983 154.758 414.632 156.06L425.705 178.951C426.887 181.376 426.532 183.387 424.642 184.984C424.17 185.398 423.52 185.901 422.694 186.493C421.867 187.084 420.922 187.617 419.859 188.09C419.15 188.504 418.235 188.74 417.113 188.8C415.991 188.859 414.691 188.592 413.215 188.001L397.624 181.347C397.152 181.169 396.709 181.08 396.295 181.08C395.941 181.08 395.439 181.406 394.79 182.056L382.919 195.188C382.329 195.779 381.738 196.193 381.148 196.43C380.557 196.667 379.907 196.785 379.199 196.785ZM437.044 254.279C429.426 254.279 422.28 253.007 415.607 250.464C408.933 247.861 402.969 244.312 397.713 239.817C392.516 235.262 388.264 230.027 384.957 224.112C381.649 218.197 379.583 211.927 378.756 205.302C378.46 202.641 379.051 200.748 380.527 199.624C382.004 198.441 383.923 198.204 386.285 198.914C394.908 201.458 403.323 203.41 411.532 204.77C419.8 206.131 428.304 206.811 437.044 206.811C445.844 206.811 454.348 206.131 462.557 204.77C470.765 203.41 479.181 201.458 487.803 198.914C490.224 198.204 492.144 198.441 493.561 199.624C495.038 200.748 495.599 202.641 495.244 205.302C494.417 211.927 492.351 218.197 489.043 224.112C485.795 230.027 481.543 235.262 476.287 239.817C471.09 244.312 465.155 247.861 458.482 250.464C451.808 253.007 444.663 254.279 437.044 254.279ZM437.044 226.774C444.131 226.774 451.247 226.33 458.393 225.443C465.598 224.497 472.183 223.284 478.147 221.805C478.974 221.569 479.624 221.243 480.096 220.829C480.628 220.415 481.1 219.913 481.514 219.321C482.104 218.138 482.754 216.748 483.463 215.151C484.23 213.554 484.85 211.839 485.323 210.005C485.441 209.354 485.175 209.088 484.526 209.206C477.38 211.158 469.761 212.755 461.671 213.998C453.639 215.181 445.43 215.772 437.044 215.772C428.658 215.772 420.449 215.181 412.418 213.998C404.386 212.755 396.768 211.158 389.563 209.206C388.913 209.088 388.648 209.354 388.766 210.005C389.297 211.898 389.888 213.613 390.537 215.151C391.187 216.689 391.866 218.079 392.575 219.321C393.284 220.563 394.376 221.391 395.853 221.805C401.817 223.284 408.402 224.497 415.607 225.443C422.812 226.33 429.958 226.774 437.044 226.774Z" fill="#E073DE"/>
<path d="M644.362 195.803C643.786 195.803 643.472 195.427 643.422 194.675C643.172 191.642 642.896 189.11 642.595 187.08C642.294 185.025 641.881 183.358 641.354 182.08C640.828 180.776 640.126 179.761 639.249 179.034C638.397 178.307 637.294 177.768 635.94 177.417C634.612 177.042 632.97 176.753 631.015 176.553C630.639 176.503 630.376 176.402 630.226 176.252C630.075 176.076 630 175.889 630 175.688C630 175.437 630.075 175.212 630.226 175.011C630.376 174.811 630.639 174.698 631.015 174.673C632.995 174.447 634.65 174.159 635.978 173.808C637.332 173.457 638.434 172.943 639.287 172.267C640.164 171.59 640.853 170.662 641.354 169.484C641.881 168.306 642.294 166.79 642.595 164.935C642.896 163.055 643.172 160.749 643.422 158.017C643.472 157.616 643.573 157.353 643.723 157.228C643.899 157.077 644.112 157.002 644.362 157.002C644.563 157.002 644.751 157.077 644.926 157.228C645.127 157.353 645.24 157.604 645.265 157.979C645.49 160.737 645.753 163.055 646.054 164.935C646.38 166.79 646.794 168.319 647.295 169.522C647.821 170.7 648.511 171.627 649.363 172.304C650.24 172.981 651.343 173.495 652.671 173.846C654.025 174.172 655.679 174.447 657.634 174.673C658.01 174.698 658.273 174.811 658.424 175.011C658.599 175.212 658.687 175.437 658.687 175.688C658.687 175.889 658.599 176.077 658.424 176.252C658.273 176.402 658.01 176.503 657.634 176.553C655.679 176.753 654.025 177.042 652.671 177.417C651.343 177.768 650.24 178.307 649.363 179.034C648.511 179.761 647.821 180.776 647.295 182.08C646.769 183.358 646.355 185.025 646.054 187.08C645.753 189.11 645.49 191.642 645.265 194.675C645.24 195.427 644.939 195.803 644.362 195.803ZM686.584 240.356C686.334 240.356 686.096 240.268 685.87 240.093C685.645 239.917 685.507 239.617 685.457 239.19C685.005 234.553 684.504 230.468 683.953 226.934C683.426 223.374 682.787 220.291 682.035 217.685C681.308 215.078 680.418 212.86 679.366 211.03C678.313 209.2 677.047 207.671 675.568 206.443C674.115 205.19 672.385 204.162 670.38 203.36C668.4 202.558 666.094 201.894 663.462 201.367C660.83 200.841 657.81 200.365 654.401 199.938C653.95 199.888 653.624 199.75 653.423 199.525C653.223 199.299 653.123 199.061 653.123 198.811C653.123 198.159 653.549 197.783 654.401 197.683C658.361 197.181 661.808 196.617 664.74 195.991C667.673 195.339 670.192 194.512 672.297 193.509C674.403 192.482 676.17 191.141 677.599 189.486C679.027 187.832 680.205 185.764 681.133 183.283C682.085 180.776 682.875 177.731 683.501 174.146C684.153 170.562 684.73 166.314 685.231 161.401C685.281 160.95 685.406 160.624 685.607 160.423C685.833 160.223 686.083 160.123 686.359 160.123C687.011 160.123 687.387 160.549 687.487 161.401C688.038 166.314 688.627 170.562 689.254 174.146C689.906 177.731 690.695 180.776 691.623 183.283C692.575 185.764 693.766 187.832 695.194 189.486C696.623 191.116 698.378 192.444 700.458 193.472C702.538 194.499 705.045 195.339 707.978 195.991C710.91 196.617 714.357 197.181 718.317 197.683C719.144 197.783 719.558 198.159 719.558 198.811C719.558 199.061 719.457 199.299 719.257 199.525C719.081 199.75 718.768 199.888 718.317 199.938C714.908 200.365 711.888 200.841 709.256 201.367C706.649 201.894 704.356 202.558 702.375 203.36C700.395 204.162 698.691 205.19 697.262 206.443C695.834 207.671 694.605 209.2 693.578 211.03C692.55 212.86 691.685 215.078 690.983 217.685C690.282 220.291 689.667 223.374 689.141 226.934C688.64 230.468 688.164 234.553 687.712 239.19C687.687 239.617 687.562 239.917 687.336 240.093C687.136 240.268 686.885 240.356 686.584 240.356ZM658.311 244.943C657.735 244.943 657.409 244.567 657.333 243.815C657.108 240.782 656.832 238.238 656.506 236.183C656.206 234.152 655.792 232.486 655.266 231.182C654.764 229.904 654.075 228.901 653.198 228.174C652.346 227.447 651.243 226.909 649.889 226.558C648.561 226.182 646.919 225.893 644.964 225.693C644.588 225.643 644.325 225.542 644.174 225.392C644.024 225.217 643.949 225.016 643.949 224.791C643.949 224.54 644.024 224.327 644.174 224.151C644.325 223.951 644.588 223.826 644.964 223.775C646.944 223.55 648.598 223.262 649.927 222.911C651.28 222.56 652.383 222.046 653.235 221.369C654.113 220.692 654.802 219.765 655.303 218.587C655.83 217.409 656.243 215.892 656.544 214.038C656.845 212.158 657.108 209.852 657.333 207.12C657.384 206.719 657.496 206.455 657.672 206.33C657.847 206.18 658.06 206.104 658.311 206.104C658.512 206.104 658.7 206.18 658.875 206.33C659.05 206.455 659.163 206.706 659.213 207.082C659.439 209.839 659.702 212.158 660.003 214.038C660.329 215.892 660.742 217.421 661.244 218.625C661.77 219.803 662.459 220.73 663.312 221.407C664.189 222.084 665.292 222.597 666.62 222.948C667.974 223.274 669.628 223.55 671.583 223.775C671.959 223.826 672.222 223.951 672.373 224.151C672.523 224.327 672.598 224.54 672.598 224.791C672.598 225.016 672.523 225.217 672.373 225.392C672.222 225.542 671.959 225.643 671.583 225.693C669.603 225.893 667.936 226.182 666.583 226.558C665.254 226.909 664.151 227.447 663.274 228.174C662.422 228.876 661.732 229.866 661.206 231.145C660.705 232.448 660.304 234.127 660.003 236.183C659.702 238.238 659.439 240.782 659.213 243.815C659.138 244.567 658.837 244.943 658.311 244.943Z" fill="#22E3E0"/>
<path d="M167.362 195.803C166.786 195.803 166.472 195.427 166.422 194.675C166.172 191.642 165.896 189.11 165.595 187.08C165.294 185.025 164.881 183.358 164.354 182.08C163.828 180.776 163.126 179.761 162.249 179.034C161.397 178.307 160.294 177.768 158.94 177.417C157.612 177.042 155.97 176.753 154.015 176.553C153.639 176.503 153.376 176.402 153.226 176.252C153.075 176.076 153 175.889 153 175.688C153 175.437 153.075 175.212 153.226 175.011C153.376 174.811 153.639 174.698 154.015 174.673C155.995 174.447 157.65 174.159 158.978 173.808C160.332 173.457 161.434 172.943 162.287 172.267C163.164 171.59 163.853 170.662 164.354 169.484C164.881 168.306 165.294 166.79 165.595 164.935C165.896 163.055 166.172 160.749 166.422 158.017C166.472 157.616 166.573 157.353 166.723 157.228C166.899 157.077 167.112 157.002 167.362 157.002C167.563 157.002 167.751 157.077 167.926 157.228C168.127 157.353 168.24 157.604 168.265 157.979C168.49 160.737 168.753 163.055 169.054 164.935C169.38 166.79 169.794 168.319 170.295 169.522C170.821 170.7 171.511 171.627 172.363 172.304C173.24 172.981 174.343 173.495 175.671 173.846C177.025 174.172 178.679 174.447 180.634 174.673C181.01 174.698 181.273 174.811 181.424 175.011C181.599 175.212 181.687 175.437 181.687 175.688C181.687 175.889 181.599 176.077 181.424 176.252C181.273 176.402 181.01 176.503 180.634 176.553C178.679 176.753 177.025 177.042 175.671 177.417C174.343 177.768 173.24 178.307 172.363 179.034C171.511 179.761 170.821 180.776 170.295 182.08C169.769 183.358 169.355 185.025 169.054 187.08C168.753 189.11 168.49 191.642 168.265 194.675C168.24 195.427 167.939 195.803 167.362 195.803ZM209.584 240.356C209.334 240.356 209.096 240.268 208.87 240.093C208.645 239.917 208.507 239.617 208.457 239.19C208.005 234.553 207.504 230.468 206.953 226.934C206.426 223.374 205.787 220.291 205.035 217.685C204.308 215.078 203.418 212.86 202.366 211.03C201.313 209.2 200.047 207.671 198.568 206.443C197.115 205.19 195.385 204.162 193.38 203.36C191.4 202.558 189.094 201.894 186.462 201.367C183.83 200.841 180.81 200.365 177.401 199.938C176.95 199.888 176.624 199.75 176.423 199.525C176.223 199.299 176.123 199.061 176.123 198.811C176.123 198.159 176.549 197.783 177.401 197.683C181.361 197.181 184.808 196.617 187.74 195.991C190.673 195.339 193.192 194.512 195.297 193.509C197.403 192.482 199.17 191.141 200.599 189.486C202.027 187.832 203.205 185.764 204.133 183.283C205.085 180.776 205.875 177.731 206.501 174.146C207.153 170.562 207.73 166.314 208.231 161.401C208.281 160.95 208.406 160.624 208.607 160.423C208.833 160.223 209.083 160.123 209.359 160.123C210.011 160.123 210.387 160.549 210.487 161.401C211.038 166.314 211.627 170.562 212.254 174.146C212.906 177.731 213.695 180.776 214.623 183.283C215.575 185.764 216.766 187.832 218.194 189.486C219.623 191.116 221.378 192.444 223.458 193.472C225.538 194.499 228.045 195.339 230.978 195.991C233.91 196.617 237.357 197.181 241.317 197.683C242.144 197.783 242.558 198.159 242.558 198.811C242.558 199.061 242.457 199.299 242.257 199.525C242.081 199.75 241.768 199.888 241.317 199.938C237.908 200.365 234.888 200.841 232.256 201.367C229.649 201.894 227.356 202.558 225.375 203.36C223.395 204.162 221.691 205.19 220.262 206.443C218.834 207.671 217.605 209.2 216.578 211.03C215.55 212.86 214.685 215.078 213.983 217.685C213.282 220.291 212.667 223.374 212.141 226.934C211.64 230.468 211.164 234.553 210.712 239.19C210.687 239.617 210.562 239.917 210.336 240.093C210.136 240.268 209.885 240.356 209.584 240.356ZM181.311 244.943C180.735 244.943 180.409 244.567 180.333 243.815C180.108 240.782 179.832 238.238 179.506 236.183C179.206 234.152 178.792 232.486 178.266 231.182C177.764 229.904 177.075 228.901 176.198 228.174C175.346 227.447 174.243 226.909 172.889 226.558C171.561 226.182 169.919 225.893 167.964 225.693C167.588 225.643 167.325 225.542 167.174 225.392C167.024 225.217 166.949 225.016 166.949 224.791C166.949 224.54 167.024 224.327 167.174 224.151C167.325 223.951 167.588 223.826 167.964 223.775C169.944 223.55 171.598 223.262 172.927 222.911C174.28 222.56 175.383 222.046 176.235 221.369C177.113 220.692 177.802 219.765 178.303 218.587C178.83 217.409 179.243 215.892 179.544 214.038C179.845 212.158 180.108 209.852 180.333 207.12C180.384 206.719 180.496 206.455 180.672 206.33C180.847 206.18 181.06 206.104 181.311 206.104C181.512 206.104 181.7 206.18 181.875 206.33C182.05 206.455 182.163 206.706 182.213 207.082C182.439 209.839 182.702 212.158 183.003 214.038C183.329 215.892 183.742 217.421 184.244 218.625C184.77 219.803 185.459 220.73 186.312 221.407C187.189 222.084 188.292 222.597 189.62 222.948C190.974 223.274 192.628 223.55 194.583 223.775C194.959 223.826 195.222 223.951 195.373 224.151C195.523 224.327 195.598 224.54 195.598 224.791C195.598 225.016 195.523 225.217 195.373 225.392C195.222 225.542 194.959 225.643 194.583 225.693C192.603 225.893 190.936 226.182 189.583 226.558C188.254 226.909 187.151 227.447 186.274 228.174C185.422 228.876 184.732 229.866 184.206 231.145C183.705 232.448 183.304 234.127 183.003 236.183C182.702 238.238 182.439 240.782 182.213 243.815C182.138 244.567 181.837 244.943 181.311 244.943Z" fill="#22E3E0"/>
</g>
<defs>
<filter id="filter0_f_282_1824" x="-37" y="-539.998" width="999" height="735.5" filterUnits="userSpaceOnUse" color-interpolation-filters="sRGB">
<feFlood flood-opacity="0" result="BackgroundImageFix"/>
<feBlend mode="normal" in="SourceGraphic" in2="BackgroundImageFix" result="shape"/>
<feGaussianBlur stdDeviation="100" result="effect1_foregroundBlur_282_1824"/>
</filter>
<filter id="filter1_f_282_1824" x="-145" y="267.002" width="1302" height="638.5" filterUnits="userSpaceOnUse" color-interpolation-filters="sRGB">
<feFlood flood-opacity="0" result="BackgroundImageFix"/>
<feBlend mode="normal" in="SourceGraphic" in2="BackgroundImageFix" result="shape"/>
<feGaussianBlur stdDeviation="100" result="effect1_foregroundBlur_282_1824"/>
</filter>
<linearGradient id="paint0_linear_282_1824" x1="462.5" y1="331.002" x2="462.5" y2="-339.998" gradientUnits="userSpaceOnUse">
<stop stop-color="#FB14F7"/>
<stop offset="1" stop-color="#950C92"/>
</linearGradient>
<linearGradient id="paint1_linear_282_1824" x1="506" y1="944.002" x2="506" y2="467.002" gradientUnits="userSpaceOnUse">
<stop stop-color="#FB14F7"/>
<stop offset="1" stop-color="#950C92"/>
</linearGradient>
<radialGradient id="paint2_radial_282_1824" cx="0" cy="0" r="1" gradientUnits="userSpaceOnUse" gradientTransform="translate(436.5 190.502) rotate(90) scale(148)">
<stop offset="0.647636" stop-color="#979797" stop-opacity="0.8"/>
<stop offset="1" stop-color="#999999" stop-opacity="0"/>
</radialGradient>
<radialGradient id="paint3_radial_282_1824" cx="0" cy="0" r="1" gradientUnits="userSpaceOnUse" gradientTransform="translate(436.5 190.502) rotate(90) scale(148)">
<stop offset="0.740385" stop-color="white" stop-opacity="0.8"/>
<stop offset="1" stop-color="#999999" stop-opacity="0"/>
</radialGradient>
<clipPath id="clip0_282_1824">
<rect width="402" height="874" fill="white" transform="matrix(0 -1 1 0 0 402.002)"/>
</clipPath>
</defs>
</svg>
